<svg xmlns="http://www.w3.org/2000/svg"  viewBox="0 0 48 48" width="96px" height="96px"><linearGradient id="SVGID_1_" x1="37.376" x2="11.447" y1="11.171" y2="37.1" gradientUnits="userSpaceOnUse"><stop offset="0" stop-color="#60affe"/><stop offset=".033" stop-color="#6ab4fe"/><stop offset=".197" stop-color="#97cbfe"/><stop offset=".362" stop-color="#bddeff"/><stop offset=".525" stop-color="#daecff"/><stop offset=".687" stop-color="#eef7ff"/><stop offset=".846" stop-color="#fbfdff"/><stop offset="1" stop-color="#fff"/></linearGradient><path fill="url(#SVGID_1_)" d="M24.349,21.764v5.023c0,0.552,0.448,1,1,1h9.009c-1.401,4.556-5.376,7.724-11.117,7.256	c-4.208-0.343-7.921-3.113-9.303-7.102c-2.697-7.783,3.011-15.03,10.411-15.03c2.457,0,4.723,0.803,6.56,2.156	c0.389,0.287,0.933,0.228,1.275-0.113l3.782-3.78c0.428-0.427,0.373-1.124-0.097-1.503c-3.685-2.965-8.538-4.539-13.761-3.922	C13.754,6.736,7.037,13.483,6.084,21.84c-1.268,11.119,7.398,20.544,18.264,20.544c15.451,0,18.606-13.33,17.486-20.729	c-0.075-0.496-0.49-0.868-0.992-0.869L25.35,20.764C24.797,20.763,24.349,21.211,24.349,21.764z"/><line x1="13.782" x2="8.953" y1="18.48" y2="14.788" fill="none" stroke="#2e9bfe" stroke-linecap="round" stroke-linejoin="round" stroke-width="3"/><line x1="8.953" x2="13.782" y1="33.212" y2="29.52" fill="none" stroke="#2e9bfe" stroke-linecap="round" stroke-linejoin="round" stroke-width="3"/><line x1="36.946" x2="32.072" y1="36.253" y2="32.03" fill="none" stroke="#2e9bfe" stroke-linecap="round" stroke-linejoin="round" stroke-width="3"/><path fill="none" stroke="#2e9bfe" stroke-linecap="round" stroke-linejoin="round" stroke-width="3" d="M30.873,41.194c9.96-3.118,12.058-13.583,11.113-19.826c-0.075-0.496-0.49-0.868-0.992-0.869l-15.493-0.022	c-0.553-0.001-1.001,0.447-1.001,1V26.5c0,0.552,0.448,1,1,1h9.009c-1.401,4.556-5.376,7.724-11.117,7.256	c-4.208-0.343-7.921-3.113-9.303-7.102c-2.697-7.783,3.011-15.03,10.411-15.03c2.457,0,4.723,0.803,6.56,2.156	c0.389,0.287,0.933,0.228,1.275-0.113l3.782-3.78c0.428-0.427,0.373-1.124-0.097-1.503c-3.224-2.595-7.343-4.124-11.821-4.052"/><path fill="none" stroke="#2e9bfe" stroke-linecap="round" stroke-linejoin="round" stroke-width="3" d="M17.329,6.774c-5.952,2.53-10.337,8.147-11.093,14.779c-1.218,10.681,6.73,19.799,16.991,20.5"/></svg>